<svg xmlns="http://www.w3.org/2000/svg" viewBox="0 0 1600 1200">
  <defs>
    <style>
      .table-header { font-family: Arial, sans-serif; font-size: 12px; font-weight: bold; fill: white; }
      .table-field { font-family: Arial, sans-serif; font-size: 9px; fill: #2d3748; }
      .table-pk { font-family: Arial, sans-serif; font-size: 9px; fill: #805ad5; font-weight: bold; }
      .table-fk { font-family: Arial, sans-serif; font-size: 9px; fill: #3182ce; }
      .title { font-family: Arial, sans-serif; font-size: 28px; font-weight: bold; fill: #1a365d; }
      .legend-text { font-family: Arial, sans-serif; font-size: 10px; fill: #4a5568; }
    </style>
    <marker id="arrow" markerWidth="10" markerHeight="7" refX="9" refY="3.5" orient="auto">
      <polygon points="0 0, 10 3.5, 0 7" fill="#718096"/>
    </marker>
    <marker id="many" markerWidth="12" markerHeight="12" refX="6" refY="6" orient="auto">
      <circle cx="6" cy="6" r="3" fill="none" stroke="#718096" stroke-width="1.5"/>
    </marker>
  </defs>

  <!-- Background -->
  <rect width="1600" height="1200" fill="#f7fafc"/>

  <!-- Title -->
  <text x="50" y="45" class="title">Formula Contract - Entity Relationship Diagram</text>
  <rect x="50" y="55" width="120" height="4" fill="#3182ce"/>

  <!-- ==================== TABLES ==================== -->

  <!-- USERS -->
  <g transform="translate(50, 90)">
    <rect x="0" y="0" width="180" height="160" rx="6" fill="white" stroke="#1a365d" stroke-width="2"/>
    <rect x="0" y="0" width="180" height="28" rx="6" fill="#1a365d"/>
    <rect x="0" y="20" width="180" height="8" fill="#1a365d"/>
    <text x="90" y="19" text-anchor="middle" class="table-header">users</text>
    <text x="10" y="45" class="table-pk">🔑 id (UUID)</text>
    <text x="10" y="60" class="table-field">email</text>
    <text x="10" y="75" class="table-field">password_hash</text>
    <text x="10" y="90" class="table-field">name</text>
    <text x="10" y="105" class="table-field">phone</text>
    <text x="10" y="120" class="table-field">role (enum)</text>
    <text x="10" y="135" class="table-field">language</text>
    <text x="10" y="150" class="table-field">is_active, timestamps</text>
  </g>

  <!-- CLIENTS -->
  <g transform="translate(280, 90)">
    <rect x="0" y="0" width="180" height="130" rx="6" fill="white" stroke="#38a169" stroke-width="2"/>
    <rect x="0" y="0" width="180" height="28" rx="6" fill="#38a169"/>
    <rect x="0" y="20" width="180" height="8" fill="#38a169"/>
    <text x="90" y="19" text-anchor="middle" class="table-header">clients</text>
    <text x="10" y="45" class="table-pk">🔑 id (UUID)</text>
    <text x="10" y="60" class="table-field">company_name</text>
    <text x="10" y="75" class="table-field">contact_person</text>
    <text x="10" y="90" class="table-field">email, phone</text>
    <text x="10" y="105" class="table-field">address</text>
    <text x="10" y="120" class="table-field">is_deleted, timestamps</text>
  </g>

  <!-- PROJECTS -->
  <g transform="translate(510, 90)">
    <rect x="0" y="0" width="220" height="220" rx="6" fill="white" stroke="#2c5282" stroke-width="2"/>
    <rect x="0" y="0" width="220" height="28" rx="6" fill="#2c5282"/>
    <rect x="0" y="20" width="220" height="8" fill="#2c5282"/>
    <text x="110" y="19" text-anchor="middle" class="table-header">projects</text>
    <text x="10" y="45" class="table-pk">🔑 id (UUID)</text>
    <text x="10" y="60" class="table-fk">🔗 client_id → clients</text>
    <text x="10" y="75" class="table-field">project_code (unique)</text>
    <text x="10" y="90" class="table-field">name, description</text>
    <text x="10" y="105" class="table-field">status (enum)</text>
    <text x="10" y="120" class="table-field">currency (enum)</text>
    <text x="10" y="135" class="table-field">contract_value_manual</text>
    <text x="10" y="150" class="table-field">contract_value_calculated</text>
    <text x="10" y="165" class="table-field">installation_date</text>
    <text x="10" y="180" class="table-field">kickoff_*, signoff_*</text>
    <text x="10" y="195" class="table-field">client_contact overrides</text>
    <text x="10" y="210" class="table-field">is_deleted, timestamps</text>
  </g>

  <!-- PROJECT_ASSIGNMENTS -->
  <g transform="translate(280, 250)">
    <rect x="0" y="0" width="180" height="85" rx="6" fill="white" stroke="#805ad5" stroke-width="2"/>
    <rect x="0" y="0" width="180" height="28" rx="6" fill="#805ad5"/>
    <rect x="0" y="20" width="180" height="8" fill="#805ad5"/>
    <text x="90" y="19" text-anchor="middle" class="table-header">project_assignments</text>
    <text x="10" y="45" class="table-pk">🔑 id (UUID)</text>
    <text x="10" y="60" class="table-fk">🔗 project_id → projects</text>
    <text x="10" y="75" class="table-fk">🔗 user_id → users</text>
  </g>

  <!-- MILESTONES -->
  <g transform="translate(780, 90)">
    <rect x="0" y="0" width="180" height="130" rx="6" fill="white" stroke="#d69e2e" stroke-width="2"/>
    <rect x="0" y="0" width="180" height="28" rx="6" fill="#d69e2e"/>
    <rect x="0" y="20" width="180" height="8" fill="#d69e2e"/>
    <text x="90" y="19" text-anchor="middle" class="table-header">milestones</text>
    <text x="10" y="45" class="table-pk">🔑 id (UUID)</text>
    <text x="10" y="60" class="table-fk">🔗 project_id → projects</text>
    <text x="10" y="75" class="table-field">name</text>
    <text x="10" y="90" class="table-field">due_date</text>
    <text x="10" y="105" class="table-field">alert_days_before</text>
    <text x="10" y="120" class="table-field">is_completed</text>
  </g>

  <!-- SCOPE_ITEMS -->
  <g transform="translate(510, 340)">
    <rect x="0" y="0" width="250" height="280" rx="6" fill="white" stroke="#e53e3e" stroke-width="2"/>
    <rect x="0" y="0" width="250" height="28" rx="6" fill="#e53e3e"/>
    <rect x="0" y="20" width="250" height="8" fill="#e53e3e"/>
    <text x="125" y="19" text-anchor="middle" class="table-header">scope_items</text>
    <text x="10" y="45" class="table-pk">🔑 id (UUID)</text>
    <text x="10" y="60" class="table-fk">🔗 project_id → projects</text>
    <text x="10" y="75" class="table-fk">🔗 assigned_to → users</text>
    <text x="10" y="90" class="table-field">item_code (user entered)</text>
    <text x="10" y="105" class="table-field">name, description</text>
    <text x="10" y="120" class="table-field">width, depth, height (mm)</text>
    <text x="10" y="135" class="table-field">unit, quantity</text>
    <text x="10" y="150" class="table-field">unit_price, total_price (calc)</text>
    <text x="10" y="165" class="table-field">item_path (production/procurement)</text>
    <text x="10" y="180" class="table-field">status (enum)</text>
    <text x="10" y="195" class="table-field">procurement_status (enum)</text>
    <text x="10" y="210" class="table-field">production_percentage (0-100)</text>
    <text x="10" y="225" class="table-field">drawing_receival_date</text>
    <text x="10" y="240" class="table-field">production_start_date</text>
    <text x="10" y="255" class="table-field">is_installed, installed_at</text>
    <text x="10" y="270" class="table-field">is_deleted, timestamps</text>
  </g>

  <!-- ITEM_STEPS -->
  <g transform="translate(280, 370)">
    <rect x="0" y="0" width="180" height="115" rx="6" fill="white" stroke="#718096" stroke-width="2"/>
    <rect x="0" y="0" width="180" height="28" rx="6" fill="#718096"/>
    <rect x="0" y="20" width="180" height="8" fill="#718096"/>
    <text x="90" y="19" text-anchor="middle" class="table-header">item_steps</text>
    <text x="10" y="45" class="table-pk">🔑 id (UUID)</text>
    <text x="10" y="60" class="table-fk">🔗 item_id → scope_items</text>
    <text x="10" y="75" class="table-field">name</text>
    <text x="10" y="90" class="table-field">sort_order</text>
    <text x="10" y="105" class="table-field">is_completed</text>
  </g>

  <!-- DRAWINGS -->
  <g transform="translate(810, 340)">
    <rect x="0" y="0" width="200" height="145" rx="6" fill="white" stroke="#3182ce" stroke-width="2"/>
    <rect x="0" y="0" width="200" height="28" rx="6" fill="#3182ce"/>
    <rect x="0" y="20" width="200" height="8" fill="#3182ce"/>
    <text x="100" y="19" text-anchor="middle" class="table-header">drawings</text>
    <text x="10" y="45" class="table-pk">🔑 id (UUID)</text>
    <text x="10" y="60" class="table-fk">🔗 item_id → scope_items (1:1)</text>
    <text x="10" y="75" class="table-field">status (enum)</text>
    <text x="10" y="90" class="table-field">current_revision (A, B, C...)</text>
    <text x="10" y="105" class="table-field">sent_to_client_at</text>
    <text x="10" y="120" class="table-field">approved_at / rejected_at</text>
    <text x="10" y="135" class="table-field">approval_comments</text>
  </g>

  <!-- DRAWING_REVISIONS -->
  <g transform="translate(1060, 340)">
    <rect x="0" y="0" width="200" height="145" rx="6" fill="white" stroke="#3182ce" stroke-width="2"/>
    <rect x="0" y="0" width="200" height="28" rx="6" fill="#3182ce"/>
    <rect x="0" y="20" width="200" height="8" fill="#3182ce"/>
    <text x="100" y="19" text-anchor="middle" class="table-header">drawing_revisions</text>
    <text x="10" y="45" class="table-pk">🔑 id (UUID)</text>
    <text x="10" y="60" class="table-fk">🔗 drawing_id → drawings</text>
    <text x="10" y="75" class="table-field">revision (A, B, C...)</text>
    <text x="10" y="90" class="table-field">file_url, file_name</text>
    <text x="10" y="105" class="table-field">file_type (pdf, dwg, dxf)</text>
    <text x="10" y="120" class="table-field">markup_file_url (client)</text>
    <text x="10" y="135" class="table-field">uploaded_at, uploaded_by</text>
  </g>

  <!-- MATERIALS -->
  <g transform="translate(810, 520)">
    <rect x="0" y="0" width="200" height="175" rx="6" fill="white" stroke="#805ad5" stroke-width="2"/>
    <rect x="0" y="0" width="200" height="28" rx="6" fill="#805ad5"/>
    <rect x="0" y="20" width="200" height="8" fill="#805ad5"/>
    <text x="100" y="19" text-anchor="middle" class="table-header">materials</text>
    <text x="10" y="45" class="table-pk">🔑 id (UUID)</text>
    <text x="10" y="60" class="table-fk">🔗 project_id → projects</text>
    <text x="10" y="75" class="table-field">name</text>
    <text x="10" y="90" class="table-field">specification</text>
    <text x="10" y="105" class="table-field">supplier, code_reference</text>
    <text x="10" y="120" class="table-field">images (JSONB array)</text>
    <text x="10" y="135" class="table-field">status (enum)</text>
    <text x="10" y="150" class="table-field">sent/approved/rejected_at</text>
    <text x="10" y="165" class="table-field">is_deleted, timestamps</text>
  </g>

  <!-- ITEM_MATERIALS -->
  <g transform="translate(1060, 520)">
    <rect x="0" y="0" width="180" height="85" rx="6" fill="white" stroke="#9f7aea" stroke-width="2"/>
    <rect x="0" y="0" width="180" height="28" rx="6" fill="#9f7aea"/>
    <rect x="0" y="20" width="180" height="8" fill="#9f7aea"/>
    <text x="90" y="19" text-anchor="middle" class="table-header">item_materials</text>
    <text x="10" y="45" class="table-pk">🔑 id (UUID)</text>
    <text x="10" y="60" class="table-fk">🔗 item_id → scope_items</text>
    <text x="10" y="75" class="table-fk">🔗 material_id → materials</text>
  </g>

  <!-- SNAGGING -->
  <g transform="translate(50, 290)">
    <rect x="0" y="0" width="180" height="145" rx="6" fill="white" stroke="#e53e3e" stroke-width="2"/>
    <rect x="0" y="0" width="180" height="28" rx="6" fill="#e53e3e"/>
    <rect x="0" y="20" width="180" height="8" fill="#e53e3e"/>
    <text x="90" y="19" text-anchor="middle" class="table-header">snagging</text>
    <text x="10" y="45" class="table-pk">🔑 id (UUID)</text>
    <text x="10" y="60" class="table-fk">🔗 project_id → projects</text>
    <text x="10" y="75" class="table-fk">🔗 item_id → scope_items</text>
    <text x="10" y="90" class="table-field">description</text>
    <text x="10" y="105" class="table-field">photo_url</text>
    <text x="10" y="120" class="table-field">is_resolved</text>
    <text x="10" y="135" class="table-field">resolved_at, resolved_by</text>
  </g>

  <!-- REPORTS -->
  <g transform="translate(50, 470)">
    <rect x="0" y="0" width="180" height="145" rx="6" fill="white" stroke="#38a169" stroke-width="2"/>
    <rect x="0" y="0" width="180" height="28" rx="6" fill="#38a169"/>
    <rect x="0" y="20" width="180" height="8" fill="#38a169"/>
    <text x="90" y="19" text-anchor="middle" class="table-header">reports</text>
    <text x="10" y="45" class="table-pk">🔑 id (UUID)</text>
    <text x="10" y="60" class="table-fk">🔗 project_id → projects</text>
    <text x="10" y="75" class="table-field">report_type</text>
    <text x="10" y="90" class="table-field">is_published</text>
    <text x="10" y="105" class="table-field">share_with_client</text>
    <text x="10" y="120" class="table-field">share_internal</text>
    <text x="10" y="135" class="table-field">is_deleted, timestamps</text>
  </g>

  <!-- REPORT_LINES -->
  <g transform="translate(50, 650)">
    <rect x="0" y="0" width="180" height="115" rx="6" fill="white" stroke="#38a169" stroke-width="2"/>
    <rect x="0" y="0" width="180" height="28" rx="6" fill="#48bb78"/>
    <rect x="0" y="20" width="180" height="8" fill="#48bb78"/>
    <text x="90" y="19" text-anchor="middle" class="table-header">report_lines</text>
    <text x="10" y="45" class="table-pk">🔑 id (UUID)</text>
    <text x="10" y="60" class="table-fk">🔗 report_id → reports</text>
    <text x="10" y="75" class="table-field">sort_order</text>
    <text x="10" y="90" class="table-field">title, description</text>
    <text x="10" y="105" class="table-field">photos (JSONB, max 6)</text>
  </g>

  <!-- NOTIFICATIONS -->
  <g transform="translate(280, 520)">
    <rect x="0" y="0" width="180" height="145" rx="6" fill="white" stroke="#d69e2e" stroke-width="2"/>
    <rect x="0" y="0" width="180" height="28" rx="6" fill="#d69e2e"/>
    <rect x="0" y="20" width="180" height="8" fill="#d69e2e"/>
    <text x="90" y="19" text-anchor="middle" class="table-header">notifications</text>
    <text x="10" y="45" class="table-pk">🔑 id (UUID)</text>
    <text x="10" y="60" class="table-fk">🔗 user_id → users</text>
    <text x="10" y="75" class="table-fk">🔗 project_id → projects</text>
    <text x="10" y="90" class="table-field">type (enum)</text>
    <text x="10" y="105" class="table-field">title, message</text>
    <text x="10" y="120" class="table-field">is_read, email_sent</text>
    <text x="10" y="135" class="table-field">link</text>
  </g>

  <!-- ACTIVITY_LOG -->
  <g transform="translate(280, 700)">
    <rect x="0" y="0" width="180" height="130" rx="6" fill="white" stroke="#718096" stroke-width="2"/>
    <rect x="0" y="0" width="180" height="28" rx="6" fill="#718096"/>
    <rect x="0" y="20" width="180" height="8" fill="#718096"/>
    <text x="90" y="19" text-anchor="middle" class="table-header">activity_log</text>
    <text x="10" y="45" class="table-pk">🔑 id (UUID)</text>
    <text x="10" y="60" class="table-fk">🔗 user_id → users</text>
    <text x="10" y="75" class="table-fk">🔗 project_id → projects</text>
    <text x="10" y="90" class="table-field">action, description</text>
    <text x="10" y="105" class="table-field">entity_type, entity_id</text>
    <text x="10" y="120" class="table-field">created_at</text>
  </g>

  <!-- FILE_ATTACHMENTS -->
  <g transform="translate(510, 660)">
    <rect x="0" y="0" width="200" height="115" rx="6" fill="white" stroke="#718096" stroke-width="2"/>
    <rect x="0" y="0" width="200" height="28" rx="6" fill="#a0aec0"/>
    <rect x="0" y="20" width="200" height="8" fill="#a0aec0"/>
    <text x="100" y="19" text-anchor="middle" class="table-header">file_attachments</text>
    <text x="10" y="45" class="table-pk">🔑 id (UUID)</text>
    <text x="10" y="60" class="table-field">entity_type, entity_id</text>
    <text x="10" y="75" class="table-field">file_url, file_name</text>
    <text x="10" y="90" class="table-field">file_type, file_size</text>
    <text x="10" y="105" class="table-field">uploaded_at, uploaded_by</text>
  </g>

  <!-- ==================== RELATIONSHIPS ==================== -->

  <!-- clients → projects -->
  <line x1="460" y1="155" x2="510" y2="155" stroke="#718096" stroke-width="1.5"/>
  <circle cx="460" cy="155" r="3" fill="#718096"/>
  <text x="480" y="148" font-family="Arial" font-size="8" fill="#718096">1:N</text>

  <!-- projects → scope_items -->
  <line x1="620" y1="310" x2="620" y2="340" stroke="#718096" stroke-width="1.5"/>
  <circle cx="620" cy="310" r="3" fill="#718096"/>
  <text x="625" y="330" font-family="Arial" font-size="8" fill="#718096">1:N</text>

  <!-- projects → milestones -->
  <line x1="730" y1="155" x2="780" y2="155" stroke="#718096" stroke-width="1.5"/>
  <circle cx="730" cy="155" r="3" fill="#718096"/>
  <text x="750" y="148" font-family="Arial" font-size="8" fill="#718096">1:N</text>

  <!-- scope_items → drawings (1:1) -->
  <line x1="760" y1="420" x2="810" y2="420" stroke="#718096" stroke-width="1.5"/>
  <circle cx="760" cy="420" r="3" fill="#718096"/>
  <circle cx="810" cy="420" r="3" fill="#718096"/>
  <text x="780" y="413" font-family="Arial" font-size="8" fill="#718096">1:1</text>

  <!-- drawings → drawing_revisions -->
  <line x1="1010" y1="420" x2="1060" y2="420" stroke="#718096" stroke-width="1.5"/>
  <circle cx="1010" cy="420" r="3" fill="#718096"/>
  <text x="1030" y="413" font-family="Arial" font-size="8" fill="#718096">1:N</text>

  <!-- scope_items → item_steps -->
  <line x1="510" y1="430" x2="460" y2="430" stroke="#718096" stroke-width="1.5"/>
  <circle cx="510" cy="430" r="3" fill="#718096"/>
  <text x="475" y="423" font-family="Arial" font-size="8" fill="#718096">1:N</text>

  <!-- projects → materials -->
  <line x1="730" y1="280" x2="850" y2="280" stroke="#718096" stroke-width="1.5" stroke-dasharray="4,2"/>
  <line x1="850" y1="280" x2="850" y2="520" stroke="#718096" stroke-width="1.5" stroke-dasharray="4,2"/>
  <circle cx="730" cy="280" r="3" fill="#718096"/>
  <text x="790" y="273" font-family="Arial" font-size="8" fill="#718096">1:N</text>

  <!-- scope_items ↔ materials (M:N via item_materials) -->
  <line x1="760" y1="550" x2="810" y2="570" stroke="#718096" stroke-width="1.5"/>
  <line x1="1010" y1="570" x2="1060" y2="560" stroke="#718096" stroke-width="1.5"/>
  <text x="940" y="540" font-family="Arial" font-size="8" fill="#718096">M:N</text>

  <!-- users ↔ projects (M:N via project_assignments) -->
  <line x1="230" y1="170" x2="280" y2="280" stroke="#718096" stroke-width="1.5"/>
  <line x1="460" y1="290" x2="510" y2="200" stroke="#718096" stroke-width="1.5"/>
  <text x="350" y="230" font-family="Arial" font-size="8" fill="#718096">M:N</text>

  <!-- projects → snagging -->
  <line x1="510" y1="250" x2="230" y2="330" stroke="#718096" stroke-width="1.5" stroke-dasharray="4,2"/>

  <!-- projects → reports -->
  <line x1="510" y1="280" x2="230" y2="500" stroke="#718096" stroke-width="1.5" stroke-dasharray="4,2"/>

  <!-- reports → report_lines -->
  <line x1="140" y1="615" x2="140" y2="650" stroke="#718096" stroke-width="1.5"/>
  <circle cx="140" cy="615" r="3" fill="#718096"/>
  <text x="145" y="635" font-family="Arial" font-size="8" fill="#718096">1:N</text>

  <!-- users → notifications -->
  <line x1="140" y1="250" x2="140" y2="260" stroke="#718096" stroke-width="1.5" stroke-dasharray="4,2"/>
  <line x1="140" y1="260" x2="280" y2="260" stroke="#718096" stroke-width="1.5" stroke-dasharray="4,2"/>
  <line x1="280" y1="260" x2="280" y2="520" stroke="#718096" stroke-width="1.5" stroke-dasharray="4,2"/>

  <!-- ==================== LEGEND ==================== -->
  <g transform="translate(1100, 90)">
    <rect x="0" y="0" width="450" height="200" rx="8" fill="white" stroke="#e2e8f0" stroke-width="2"/>
    <text x="20" y="25" font-family="Arial" font-size="14" font-weight="bold" fill="#1a365d">Legend</text>

    <text x="20" y="50" class="table-pk">🔑 Primary Key</text>
    <text x="20" y="70" class="table-fk">🔗 Foreign Key</text>
    <text x="20" y="90" class="table-field">Regular Field</text>

    <line x1="180" y1="45" x2="230" y2="45" stroke="#718096" stroke-width="2"/>
    <text x="240" y="50" class="legend-text">Relationship</text>

    <line x1="180" y1="65" x2="230" y2="65" stroke="#718096" stroke-width="2" stroke-dasharray="4,2"/>
    <text x="240" y="70" class="legend-text">Indirect/Optional</text>

    <circle cx="195" cy="90" r="3" fill="#718096"/>
    <text x="210" y="95" class="legend-text">One side</text>

    <text x="20" y="120" class="legend-text" font-weight="bold">Table Colors:</text>
    <rect x="20" y="130" width="15" height="15" fill="#1a365d"/>
    <text x="40" y="142" class="legend-text">Users</text>
    <rect x="90" y="130" width="15" height="15" fill="#2c5282"/>
    <text x="110" y="142" class="legend-text">Projects</text>
    <rect x="175" y="130" width="15" height="15" fill="#e53e3e"/>
    <text x="195" y="142" class="legend-text">Scope Items</text>
    <rect x="280" y="130" width="15" height="15" fill="#3182ce"/>
    <text x="300" y="142" class="legend-text">Drawings</text>
    <rect x="370" y="130" width="15" height="15" fill="#805ad5"/>
    <text x="390" y="142" class="legend-text">Materials</text>

    <rect x="20" y="155" width="15" height="15" fill="#38a169"/>
    <text x="40" y="167" class="legend-text">Reports/Clients</text>
    <rect x="130" y="155" width="15" height="15" fill="#d69e2e"/>
    <text x="150" y="167" class="legend-text">Milestones/Notifications</text>
    <rect x="290" y="155" width="15" height="15" fill="#718096"/>
    <text x="310" y="167" class="legend-text">Logs/System</text>
  </g>

  <!-- Key Stats -->
  <g transform="translate(1100, 320)">
    <rect x="0" y="0" width="450" height="100" rx="8" fill="#1a365d"/>
    <text x="20" y="30" fill="#a0aec0" font-family="Arial" font-size="12">DATABASE STATS</text>
    <text x="20" y="55" fill="white" font-family="Arial" font-size="14" font-weight="bold">17 Tables</text>
    <text x="150" y="55" fill="white" font-family="Arial" font-size="14" font-weight="bold">8 Enum Types</text>
    <text x="300" y="55" fill="white" font-family="Arial" font-size="14" font-weight="bold">PostgreSQL</text>
    <text x="20" y="80" fill="#a0aec0" font-family="Arial" font-size="11">Supabase hosted • Row Level Security enabled</text>
  </g>

  <!-- Footer -->
  <text x="50" y="1170" fill="#718096" font-family="Arial" font-size="11">Formula Contract Project Management System | Entity Relationship Diagram | January 2026</text>
</svg>
